<?xml version="1.0" encoding="UTF-8" standalone="no"?>
<!-- Created with Inkscape (http://www.inkscape.org/) -->

<svg
   xmlns:dc="http://purl.org/dc/elements/1.1/"
   xmlns:cc="http://creativecommons.org/ns#"
   xmlns:rdf="http://www.w3.org/1999/02/22-rdf-syntax-ns#"
   xmlns:svg="http://www.w3.org/2000/svg"
   xmlns="http://www.w3.org/2000/svg"
   xmlns:sodipodi="http://sodipodi.sourceforge.net/DTD/sodipodi-0.dtd"
   xmlns:inkscape="http://www.inkscape.org/namespaces/inkscape"
   width="104.678"
   height="44.977001"
   viewBox="0 0 27.696054 11.900165"
   version="1.1"
   id="svg8"
   inkscape:version="0.92.3 (2405546, 2018-03-11)"
   sodipodi:docname="acciona.svg">
  <defs
     id="defs2" />
  <sodipodi:namedview
     id="base"
     pagecolor="#00ffff"
     bordercolor="#666666"
     borderopacity="1.0"
     inkscape:pageopacity="0"
     inkscape:pageshadow="2"
     inkscape:zoom="7.9195959"
     inkscape:cx="62.912096"
     inkscape:cy="-1.367822"
     inkscape:document-units="px"
     inkscape:current-layer="layer1"
     showgrid="false"
     units="px"
     fit-margin-top="0.5"
     fit-margin-left="0.5"
     fit-margin-right="0.5"
     fit-margin-bottom="0.5"
     inkscape:window-width="1920"
     inkscape:window-height="1001"
     inkscape:window-x="-9"
     inkscape:window-y="-9"
     inkscape:window-maximized="1" />
  <metadata
     id="metadata5">
    <rdf:RDF>
      <cc:Work
         rdf:about="">
        <dc:format>image/svg+xml</dc:format>
        <dc:type
           rdf:resource="http://purl.org/dc/dcmitype/StillImage" />
        <dc:title></dc:title>
      </cc:Work>
    </rdf:RDF>
  </metadata>
  <g
     inkscape:label="Layer 1"
     inkscape:groupmode="layer"
     id="layer1"
     transform="translate(-9.1763909,-93.239848)">
    <g
       id="g125"
       transform="matrix(0.26458334,0,0,0.26458334,9.244918,93.366583)"
       style="fill:none;fill-rule:evenodd">
      <path
         id="path119"
         d="m 30.992,26.514 c -0.427,0.373 -1.146,0.8 -2.264,0.8 -1.33,0 -2.048,-0.72 -2.048,-1.76 0,-1.068 0.772,-1.654 2.5,-1.708 l 1.812,-0.052 z m 3.487,3.067 c -0.186,-0.587 -0.24,-1.52 -0.24,-3.335 V 21.26 c 0,-3.308 -1.89,-4.588 -5.005,-4.588 -1.675,0 -3.246,0.267 -4.924,1.387 l 1.039,2 c 0.798,-0.48 1.864,-0.933 3.246,-0.933 1.331,0 2.397,0.613 2.397,2.134 v 0.32 l -2.236,0.08 c -3.222,0.105 -5.271,1.519 -5.271,4.133 0,2.48 1.81,4.054 4.126,4.054 1.676,0 2.821,-0.64 3.646,-1.388 l 0.535,1.122 z m 7.851,0.266 c -4.099,0 -6.202,-2.96 -6.202,-6.507 0,-3.84 2.769,-6.668 6.522,-6.668 1.702,0 2.874,0.428 3.593,0.88 l -0.054,2.613 c -0.878,-0.665 -1.862,-1.039 -3.168,-1.039 -2.154,0 -3.7,1.707 -3.7,4.053 0,2.16 1.174,4.081 3.675,4.081 1.197,0 2.103,-0.373 2.981,-0.88 l 0.798,2.107 c -1.012,0.693 -2.715,1.36 -4.444,1.36 m 11.339,0 c -4.1,0 -6.203,-2.96 -6.203,-6.507 0,-3.84 2.769,-6.668 6.519,-6.668 1.705,0 2.877,0.428 3.595,0.88 l -0.053,2.613 C 56.65,19.5 55.665,19.126 54.36,19.126 c -2.155,0 -3.7,1.707 -3.7,4.053 0,2.16 1.172,4.081 3.673,4.081 1.199,0 2.105,-0.373 2.983,-0.88 l 0.798,2.107 c -1.013,0.693 -2.715,1.36 -4.445,1.36 M 61.662,15.02 c -1.092,0 -1.968,-0.853 -1.968,-1.949 0,-1.04 0.876,-1.92 1.968,-1.92 1.119,0 1.995,0.854 1.995,1.92 0,1.068 -0.876,1.948 -1.995,1.948 z m -1.596,14.56 h 3.193 V 16.966 h -3.193 v 12.616 z m 14.469,-6.32 c 0,2.373 -1.011,4.107 -3.007,4.107 -1.943,0 -3.088,-1.655 -3.088,-4.107 0,-2.348 0.986,-4.054 3.008,-4.054 1.97,0 3.087,1.627 3.087,4.054 z m 3.275,-0.026 c 0,-1.921 -0.587,-3.575 -1.677,-4.748 -1.118,-1.147 -2.688,-1.814 -4.632,-1.814 -1.836,0 -3.352,0.667 -4.471,1.788 -1.172,1.199 -1.836,2.907 -1.836,4.88 0,2.026 0.692,3.76 1.942,4.933 1.09,1.015 2.582,1.574 4.34,1.574 1.889,0 3.432,-0.667 4.55,-1.813 1.171,-1.173 1.784,-2.88 1.784,-4.8 z m 10.141,6.346 v -7.414 c 0,-1.306 -0.241,-2.748 -1.865,-2.748 -1.117,0 -2.21,0.588 -3.193,1.335 v 8.828 H 79.699 V 16.965 h 2.714 l 0.347,1.36 c 1.356,-1.013 2.714,-1.653 4.418,-1.653 1.917,0 3.966,1.146 3.966,4.535 v 8.374 h -3.193 m 12.482,-3.067 c -0.426,0.373 -1.144,0.8 -2.263,0.8 -1.33,0 -2.05,-0.72 -2.05,-1.76 0,-1.068 0.772,-1.654 2.503,-1.708 l 1.81,-0.052 z m 3.486,3.067 c -0.185,-0.587 -0.239,-1.52 -0.239,-3.335 V 21.26 c 0,-3.308 -1.89,-4.588 -5.004,-4.588 -1.678,0 -3.248,0.267 -4.924,1.387 l 1.037,2 c 0.799,-0.48 1.864,-0.933 3.248,-0.933 1.332,0 2.396,0.613 2.396,2.134 v 0.32 l -2.236,0.08 c -3.22,0.105 -5.27,1.519 -5.27,4.133 0,2.48 1.81,4.054 4.124,4.054 1.679,0 2.822,-0.64 3.648,-1.388 l 0.532,1.122 z"
         inkscape:connector-curvature="0"
         style="fill:#FFF" />
      <path
         id="path121"
         d="M 18.036,23.727 C 17.806,22.789 17.583,21.858 17.382,20.93 17.014,19.236 16.715,17.559 16.576,15.88 A 32.395,32.395 0 0 1 16.5,14.52 30.534,30.534 0 0 1 16.7,9.272 c 0.163,-1.265 0.426,-2.339 0.626,-3.257 -0.202,0.16 -0.403,0.314 -0.606,0.46 -0.228,0.679 -0.506,1.626 -0.762,2.812 a 31.98,31.98 0 0 0 -0.468,2.73 c -0.944,-0.4 -1.863,-0.878 -2.705,-1.449 l 0.025,1.316 a 21.86,21.86 0 0 0 2.508,1.792 36.293,36.293 0 0 0 0.086,6.672 c -1.817,-0.503 -3.735,-1.27 -5.364,-2.37 l 0.025,1.314 a 22.704,22.704 0 0 0 5.627,3.405 c 0.27,1.894 0.608,3.771 0.922,5.675 -2.48,-0.333 -5.827,-1.24 -8.43,-3.006 l 0.025,1.315 c 2.755,2.295 6.165,3.883 8.821,4.417 0.542,3.957 0.77,8.121 -0.195,12.9 l 3.095,-1.816 c 1.2,-6.777 -0.488,-12.743 -1.894,-18.455"
         inkscape:connector-curvature="0"
         style="fill:#ff0000" />
      <path
         id="path123"
         d="M 14.627,36.62 C 10.643,36.547 3.103,32.63 0.525,27.154 L 0.241,26.55 0.628,26.004 c 0.907,-1.284 1.993,-3.433 1.993,-6.386 0,-0.905 -0.157,-1.98 -0.476,-3.284 L 1.953,15.554 2.621,15.107 C 4.312,13.979 7.217,11.266 7.642,5.757 L 7.713,4.85 8.611,4.716 c 1.737,-0.263 5.077,-1.122 7.978,-3.935 0,0 0.542,-0.53 0.782,-0.76 0.241,0.23 0.783,0.76 0.783,0.76 2.901,2.813 6.242,3.672 7.978,3.935 l 0.898,0.134 0.007,0.91 c 0.033,4.131 1.85,5.814 2.559,6.317 l -0.634,0.552 c -1.753,-0.7 -3.839,-2.262 -4.119,-5.802 A 17.346,17.346 0 0 1 17.528,3.257 L 17.378,3.064 17.223,3.257 A 17.047,17.047 0 0 1 9.958,6.787 L 9.793,6.824 9.77,6.992 C 9.079,12.05 6.595,14.938 4.631,16.469 l -0.118,0.091 0.029,0.149 c 0.246,1.212 0.363,2.136 0.363,2.909 0,2.5 -0.652,4.833 -1.936,6.934 l -0.076,0.12 0.073,0.127 c -0.183,3.955 8.558,9.016 11.587,9.135 l 0.074,0.686"
         inkscape:connector-curvature="0"
         style="fill:#ff0000" />
    </g>
  </g>
  <style
     id="style10"
     type="text/css">
	.st0{fill:#1B2C4C;}
	.st1{fill:#8E8E90;}
</style>
</svg>
